IKResults
version=1
nRows=17
nColumns=38
inDegrees=yes

Units are S.I. units (second, meters, Newtons, ...)
Angles are in degrees.

endheader
time	pelvis_tilt	pelvis_list	pelvis_rotation	pelvis_tx	pelvis_ty	pelvis_tz	hip_flexion_r	hip_adduction_r	hip_rotation_r	knee_angle_r	ankle_angle_r	subtalar_angle_r	mtp_angle_r	hip_flexion_l	hip_adduction_l	hip_rotation_l	knee_angle_l	ankle_angle_l	subtalar_angle_l	mtp_angle_l	lumbar_extension	lumbar_bending	lumbar_rotation	arm_flex_r	arm_add_r	arm_rot_r	elbow_flex_r	pro_sup_r	wrist_flex_r	wrist_dev_r	arm_flex_l	arm_add_l	arm_rot_l	elbow_flex_l	pro_sup_l	wrist_flex_l	wrist_dev_l
      7.51000000	     -5.47327371	     -0.18356456	     -4.25158167	      0.67195585	      0.90726211	      0.57266556	      8.66419755	     -0.29352334	     -9.47821718	    -10.81163456	      2.79492215	     -5.30293308	     25.18463240	      6.32938478	     -2.94577940	     -7.59080267	     -7.64010576	     -0.00602547	     -3.27141156	     -0.36227094	      5.90349450	     -0.79297563	     -0.83948951	     12.13787347	    -60.79529364	     -1.44005759	     -1.88273707	     86.51662706	      0.00000000	      0.00000000	     16.56382350	    -68.96127366	      1.00175970	     -1.92341620	     85.94366927	      0.00000000	      0.00000000
      7.52000000	     -5.47966528	     -0.17986757	     -4.24309806	      0.67205540	      0.90718918	      0.57271339	      8.66055500	     -0.29269237	     -9.48203008	    -10.80857084	      2.79737282	     -5.30399989	     25.18447794	      6.32814900	     -2.94893976	     -7.58926848	     -7.64359566	     -0.00561953	     -3.27014082	     -0.36252075	      5.90235703	     -0.79065923	     -0.82891410	     12.13551886	    -60.78922578	     -1.44128742	     -1.88535739	     86.51662706	      0.00000000	      0.00000000	     16.55936117	    -68.95177189	      1.00168147	     -1.92632016	     85.94366927	      0.00000000	      0.00000000
      7.53000000	     -5.49046187	     -0.20340653	     -4.22843416	      0.67236341	      0.90719149	      0.57262947	      8.61658992	     -0.27198267	     -9.54900446	    -10.74247593	      2.84151246	     -5.30902888	     25.18083093	      6.32875539	     -2.96943126	     -7.56653550	     -7.66677034	      0.01465515	     -3.24381825	     -0.36983282	      5.93816044	     -0.74388517	     -0.81192064	     12.04084126	    -60.76902640	     -1.47464698	     -1.97637104	     86.51662706	      0.00000000	      0.00000000	     16.48771880	    -68.84610423	      1.00092804	     -1.97643706	     85.94366927	      0.00000000	      0.00000000
      7.54000000	     -5.47748274	     -0.19966579	     -4.18870936	      0.67262448	      0.90715227	      0.57263897	      8.60166056	     -0.27133365	     -9.52037787	    -10.78300790	      2.84984491	     -5.31446473	     25.18005839	      6.30580053	     -2.96441584	     -7.56070492	     -7.67010122	      0.03213563	     -3.23917617	     -0.37206550	      5.96473038	     -0.74777806	     -0.84517164	     12.01691936	    -60.75776944	     -1.48247730	     -1.99682017	     86.51662706	      0.00000000	      0.00000000	     16.47824362	    -68.83185296	      1.00298657	     -1.97875626	     85.94366927	      0.00000000	      0.00000000
      7.55000000	     -5.48076350	     -0.20106370	     -4.18054878	      0.67270222	      0.90712916	      0.57261723	      8.59826882	     -0.27462476	     -9.51901508	    -10.78506993	      2.85196797	     -5.31635329	     25.17986154	      6.30685923	     -2.96497251	     -7.55903969	     -7.66954921	      0.03424649	     -3.23836751	     -0.37238661	      5.96242882	     -0.74763900	     -0.83987872	     12.01498696	    -60.75223498	     -1.48323561	     -1.99811127	     86.51662706	      0.00000000	      0.00000000	     16.47612412	    -68.82965123	      1.00286074	     -1.98057027	     85.94366927	      0.00000000	      0.00000000
      7.56000000	     -5.48076553	     -0.20119751	     -4.17983850	      0.67274844	      0.90711295	      0.57263847	      8.59827013	     -0.27468836	     -9.51893753	    -10.78516605	      2.85213672	     -5.31649282	     25.17984600	      6.30707271	     -2.96458853	     -7.55885866	     -7.66959134	      0.03439067	     -3.23826493	     -0.37240919	      5.96205252	     -0.74746715	     -0.83939973	     12.01483704	    -60.75159893	     -1.48330522	     -1.99821673	     86.51662706	      0.00000000	      0.00000000	     16.47592259	    -68.82916226	      1.00283972	     -1.98074243	     85.94366927	      0.00000000	      0.00000000
      7.57000000	     -5.47564965	     -0.20084288	     -4.16169783	      0.67290709	      0.90705955	      0.57264213	      8.57492985	     -0.27372914	     -9.51945431	    -10.78935289	      2.88537923	     -5.33688850	     25.17721428	      6.30087272	     -2.95998575	     -7.52495987	     -7.68745513	      0.03107855	     -3.22447204	     -0.37131419	      5.95927229	     -0.73741147	     -0.81874499	     11.98061367	    -60.66173874	     -1.48268045	     -1.99661420	     86.51662706	      0.00000000	      0.00000000	     16.45359810	    -68.77213159	      1.00223996	     -1.99599153	     85.94366927	      0.00000000	      0.00000000
      7.58000000	     -5.47644488	     -0.20012229	     -4.16139284	      0.67291468	      0.90707433	      0.57262571	      8.57481164	     -0.27371766	     -9.51943358	    -10.78940138	      2.88545621	     -5.33694850	     25.17720714	      6.30036771	     -2.96053951	     -7.52489766	     -7.68767179	      0.03116344	     -3.22447555	     -0.37132238	      5.95910160	     -0.73737949	     -0.81863450	     11.98050972	    -60.66164910	     -1.48268172	     -1.99661659	     86.51662706	      0.00000000	      0.00000000	     16.45354137	    -68.77216611	      1.00222765	     -1.99607654	     85.94366927	      0.00000000	      0.00000000
      7.59000000	     -5.48158251	     -0.20006903	     -4.15573651	      0.67304113	      0.90703577	      0.57263738	      8.57006440	     -0.27634796	     -9.51910007	    -10.79068982	      2.88716511	     -5.33809461	     25.17704827	      6.29801470	     -2.96152962	     -7.52376361	     -7.68884575	      0.03176932	     -3.22426330	     -0.37128500	      5.95940286	     -0.73469952	     -0.81426909	     11.97786661	    -60.65725264	     -1.48281286	     -1.99711923	     86.51662706	      0.00000000	      0.00000000	     16.45167602	    -68.77245125	      1.00177994	     -1.99855124	     85.94366927	      0.00000000	      0.00000000
      7.60000000	     -5.48090099	     -0.20059632	     -4.15539278	      0.67308619	      0.90702548	      0.57266139	      8.57028607	     -0.27661035	     -9.51909670	    -10.79060969	      2.88732152	     -5.33816755	     25.17703063	      6.29823417	     -2.96121165	     -7.52361883	     -7.68883403	      0.03181280	     -3.22422389	     -0.37128036	      5.95943326	     -0.73447946	     -0.81401027	     11.97754284	    -60.65692291	     -1.48285943	     -1.99727502	     86.51662706	      0.00000000	      0.00000000	     16.45147360	    -68.77248742	      1.00172771	     -1.99882479	     85.94366927	      0.00000000	      0.00000000
      7.61000000	     -5.48156815	     -0.20560563	     -4.13065631	      0.67338272	      0.90704575	      0.57274616	      8.53550707	     -0.26279190	     -9.53133050	    -10.77913770	      2.94224916	     -5.36339712	     25.17008895	      6.27048689	     -2.97166086	     -7.48121422	     -7.68050639	      0.06587047	     -3.21803541	     -0.36978685	      5.97536314	     -0.77453368	     -0.83771451	     11.80807939	    -60.56684660	     -1.53381983	     -2.16095986	     86.51662706	      0.00000000	      0.00000000	     16.36327304	    -68.82114723	      0.98014746	     -2.11627653	     85.94366927	      0.00000000	      0.00000000
      7.62000000	     -5.48584606	     -0.20570313	     -4.12829851	      0.67347159	      0.90703387	      0.57274457	      8.53311132	     -0.26312548	     -9.53131448	    -10.78008357	      2.94260983	     -5.36368906	     25.17002641	      6.26842061	     -2.97059573	     -7.48085996	     -7.68175531	      0.06587264	     -3.21778917	     -0.36975632	      5.97585900	     -0.77352914	     -0.83583603	     11.80761731	    -60.56672366	     -1.53405079	     -2.16135043	     86.51662706	      0.00000000	      0.00000000	     16.36273226	    -68.82164081	      0.98017317	     -2.11661752	     85.94366927	      0.00000000	      0.00000000
      7.63000000	     -5.48292475	     -0.20613819	     -4.12507709	      0.67373028	      0.90699611	      0.57274091	      8.51145161	     -0.26606402	     -9.53397248	    -10.78450662	      2.95332402	     -5.36867785	     25.16848264	      6.24807856	     -2.96762052	     -7.47125966	     -7.68528569	      0.06913670	     -3.21410156	     -0.36942240	      6.01253769	     -0.77338267	     -0.83304481	     11.78023678	    -60.56826976	     -1.54168185	     -2.18493764	     86.51662706	      0.00000000	      0.00000000	     16.34821037	    -68.83899619	      0.97959614	     -2.12834849	     85.94366927	      0.00000000	      0.00000000
      7.64000000	     -5.48687230	     -0.20538387	     -4.12096595	      0.67380428	      0.90700041	      0.57273593	      8.51080206	     -0.26578045	     -9.53406295	    -10.78394167	      2.95403940	     -5.36892572	     25.16834860	      6.24684015	     -2.96660884	     -7.47114460	     -7.68472290	      0.06998879	     -3.21407047	     -0.36942251	      6.01077624	     -0.77245205	     -0.82995698	     11.77793771	    -60.56620794	     -1.54230623	     -2.18670447	     86.51662706	      0.00000000	      0.00000000	     16.34659553	    -68.84123376	      0.97957588	     -2.12960825	     85.94366927	      0.00000000	      0.00000000
      7.65000000	     -5.48980068	     -0.20563920	     -4.11952354	      0.67387448	      0.90699169	      0.57273127	      8.50981697	     -0.26588900	     -9.53403243	    -10.78440692	      2.95439843	     -5.36913312	     25.16828999	      6.24595397	     -2.96653366	     -7.47102612	     -7.68494432	      0.07045553	     -3.21414172	     -0.36941023	      6.00989009	     -0.77296291	     -0.82884361	     11.77675295	    -60.56559928	     -1.54269826	     -2.18783978	     86.51662706	      0.00000000	      0.00000000	     16.34582967	    -68.84219177	      0.97946542	     -2.13044410	     85.94366927	      0.00000000	      0.00000000
      7.66000000	     -5.49418878	     -0.20747339	     -4.11848108	      0.67402680	      0.90694480	      0.57272827	      8.50633854	     -0.26571478	     -9.53408324	    -10.78642580	      2.95499848	     -5.36944914	     25.16820221	      6.24340229	     -2.96540707	     -7.47091796	     -7.68604390	      0.07095738	     -3.21423163	     -0.36939689	      6.01110922	     -0.77402505	     -0.82738978	     11.77424526	    -60.56557423	     -1.54342040	     -2.19023381	     86.51662706	      0.00000000	      0.00000000	     16.34435856	    -68.84479268	      0.97921751	     -2.13218987	     85.94366927	      0.00000000	      0.00000000
      7.67000000	     -5.49392009	     -0.20729393	     -4.11826619	      0.67407588	      0.90692997	      0.57274344	      8.50607674	     -0.26559558	     -9.53405532	    -10.78666762	      2.95510121	     -5.36949559	     25.16818793	      6.24333912	     -2.96520419	     -7.47088787	     -7.68612770	      0.07106827	     -3.21426242	     -0.36939585	      6.01148453	     -0.77382024	     -0.82723115	     11.77375635	    -60.56555591	     -1.54356653	     -2.19071293	     86.51662706	      0.00000000	      0.00000000	     16.34410991	    -68.84542487	      0.97916293	     -2.13252327	     85.94366927	      0.00000000	      0.00000000
